<?xml version="1.0" encoding="UTF-8" standalone="no"?>
<!-- Created with Inkscape (http://www.inkscape.org/) -->

<svg
   xmlns:dc="http://purl.org/dc/elements/1.1/"
   xmlns:cc="http://creativecommons.org/ns#"
   xmlns:rdf="http://www.w3.org/1999/02/22-rdf-syntax-ns#"
   xmlns:svg="http://www.w3.org/2000/svg"
   xmlns="http://www.w3.org/2000/svg"
   xmlns:sodipodi="http://sodipodi.sourceforge.net/DTD/sodipodi-0.dtd"
   xmlns:inkscape="http://www.inkscape.org/namespaces/inkscape"
   width="200mm"
   height="20mm"
   viewBox="0 0 210 297"
   version="1.1"
   id="svg1930"
   inkscape:version="0.92.4 (5da689c313, 2019-01-14)"
   sodipodi:docname="CENEFA.svg">
  <defs
     id="defs1924" />
  <sodipodi:namedview
     id="base"
     pagecolor="#ffffff"
     bordercolor="#666666"
     borderopacity="1.0"
     inkscape:pageopacity="0.0"
     inkscape:pageshadow="2"
     inkscape:zoom="0.98994949"
     inkscape:cx="327.92334"
     inkscape:cy="-48.927449"
     inkscape:document-units="mm"
     inkscape:current-layer="layer1"
     showgrid="false"
     units="mm"
     showguides="true"
     inkscape:guide-bbox="true"
     inkscape:window-width="2560"
     inkscape:window-height="1017"
     inkscape:window-x="1912"
     inkscape:window-y="-8"
     inkscape:window-maximized="1" />
  <metadata
     id="metadata1927">
    <rdf:RDF>
      <cc:Work
         rdf:about="">
        <dc:format>image/svg+xml</dc:format>
        <dc:type
           rdf:resource="http://purl.org/dc/dcmitype/StillImage" />
        <dc:title></dc:title>
      </cc:Work>
    </rdf:RDF>
  </metadata>
  <g
     inkscape:label="Capa 1"
     inkscape:groupmode="layer"
     id="layer1">
    <path
       style="opacity:1;fill:none;fill-opacity:1;stroke:#000000;stroke-width:1.1338582;stroke-linecap:square;stroke-linejoin:miter;stroke-miterlimit:15;stroke-dasharray:none;stroke-dashoffset:0;stroke-opacity:1"
       d="M 350.05664 2.6875 L 343.06836 6.6738281 L 343.00781 14.751953 L 349.93164 18.845703 L 356.91992 14.859375 L 356.98047 6.78125 L 350.05664 2.6875 z M 330.98828 2.9394531 L 324.00195 6.9257812 L 323.94141 15.005859 L 330.86523 19.097656 L 337.85352 15.113281 L 337.91406 7.0332031 L 330.98828 2.9394531 z M 507.02734 2.9511719 L 492.59961 11.181641 L 492.47266 27.865234 L 506.77148 36.316406 L 521.19922 28.085938 L 521.32617 11.404297 L 507.02734 2.9511719 z M 239.88867 3.5546875 L 225.46094 11.785156 L 225.33398 28.466797 L 239.63477 36.919922 L 254.06055 28.689453 L 254.1875 12.005859 L 239.88867 3.5546875 z M 104.21484 4.515625 L 89.789062 12.744141 L 89.660156 29.427734 L 103.96094 37.878906 L 118.38672 29.648438 L 118.51562 12.966797 L 104.21484 4.515625 z M 451.58984 4.5820312 L 444.60352 8.5683594 L 444.54102 16.648438 L 451.4668 20.742188 L 458.45508 16.755859 L 458.51562 8.6757812 L 451.58984 4.5820312 z M 559.8457 5.1386719 L 533.8418 19.972656 L 533.61133 50.041016 L 559.38672 65.277344 L 585.38867 50.441406 L 585.61914 20.373047 L 559.8457 5.1386719 z M 48.779297 6.1464844 L 41.792969 10.132812 L 41.730469 18.210938 L 48.65625 22.304688 L 55.642578 18.318359 L 55.705078 10.240234 L 48.779297 6.1464844 z M 157.0332 6.7011719 L 131.0293 21.535156 L 130.80078 51.605469 L 156.57422 66.839844 L 182.57812 52.005859 L 182.80664 21.935547 L 157.0332 6.7011719 z M 208.30469 9.6074219 L 199.35938 14.710938 L 199.28125 25.054688 L 208.14648 30.294922 L 217.09375 25.191406 L 217.17188 14.847656 L 208.30469 9.6074219 z M 426.22852 9.703125 L 417.2832 14.806641 L 417.20508 25.150391 L 426.07227 30.390625 L 435.01758 25.289062 L 435.0957 14.943359 L 426.22852 9.703125 z M 475.0957 9.703125 L 466.15039 14.806641 L 466.07031 25.150391 L 474.9375 30.390625 L 483.88281 25.289062 L 483.96289 14.943359 L 475.0957 9.703125 z M 312.30078 10.767578 L 305.31445 14.753906 L 305.25195 22.833984 L 312.17773 26.927734 L 319.16406 22.941406 L 319.22656 14.861328 L 312.30078 10.767578 z M 72.283203 11.265625 L 63.337891 16.369141 L 63.259766 26.714844 L 72.126953 31.955078 L 81.072266 26.851562 L 81.150391 16.507812 L 72.283203 11.265625 z M 366.59766 12.662109 L 359.60938 16.648438 L 359.54883 24.728516 L 366.47461 28.820312 L 373.46094 24.835938 L 373.52148 16.755859 L 366.59766 12.662109 z M 290.70898 17.460938 L 283.72266 21.447266 L 283.66016 29.525391 L 290.58594 33.619141 L 297.57227 29.632812 L 297.63477 21.554688 L 290.70898 17.460938 z M 449.21094 24.855469 L 440.26562 29.958984 L 440.18555 40.302734 L 449.05273 45.542969 L 457.99805 40.441406 L 458.07617 30.095703 L 449.21094 24.855469 z M 405.75586 25.099609 L 398.76953 29.085938 L 398.70703 37.166016 L 405.63281 41.259766 L 412.61914 37.273438 L 412.68164 29.193359 L 405.75586 25.099609 z M 46.398438 26.417969 L 37.453125 31.521484 L 37.375 41.867188 L 46.240234 47.107422 L 55.185547 42.003906 L 55.265625 31.660156 L 46.398438 26.417969 z M 267.36719 26.433594 L 258.42188 31.537109 L 258.3418 41.880859 L 267.20898 47.121094 L 276.1543 42.019531 L 276.23242 31.673828 L 267.36719 26.433594 z M 310.78516 30.71875 L 303.79883 34.705078 L 303.73828 42.785156 L 310.66211 46.876953 L 317.65039 42.892578 L 317.71094 34.8125 L 310.78516 30.71875 z M 476.78516 35.058594 L 462.35742 43.289062 L 462.23047 59.970703 L 476.53125 68.423828 L 490.95703 60.193359 L 491.08398 43.509766 L 476.78516 35.058594 z M 209.64648 35.662109 L 195.2207 43.892578 L 195.09375 60.574219 L 209.39258 69.025391 L 223.82031 60.794922 L 223.94727 44.113281 L 209.64648 35.662109 z M 73.974609 36.621094 L 59.546875 44.851562 L 59.419922 61.535156 L 73.71875 69.986328 L 88.146484 61.755859 L 88.273438 45.074219 L 73.974609 36.621094 z M 425.83398 38.357422 L 418.8457 42.34375 L 418.78516 50.423828 L 425.70898 54.517578 L 432.69727 50.53125 L 432.75781 42.451172 L 425.83398 38.357422 z M 241.48242 41.585938 L 232.53711 46.689453 L 232.45703 57.033203 L 241.32422 62.273438 L 250.26953 57.171875 L 250.34766 46.826172 L 241.48242 41.585938 z M 290.34766 41.585938 L 281.40234 46.689453 L 281.32422 57.033203 L 290.18945 62.273438 L 299.13477 57.171875 L 299.21484 46.826172 L 290.34766 41.585938 z M 508.27148 41.681641 L 499.32617 46.785156 L 499.24805 57.128906 L 508.11328 62.371094 L 517.05859 57.267578 L 517.13867 46.923828 L 508.27148 41.681641 z M 349.94531 43.15625 L 342.95898 47.142578 L 342.89648 55.222656 L 349.82227 59.314453 L 356.80859 55.330078 L 356.87109 47.25 L 349.94531 43.15625 z M 105.46094 43.246094 L 96.515625 48.349609 L 96.435547 58.693359 L 105.30273 63.933594 L 114.24805 58.830078 L 114.32617 48.486328 L 105.46094 43.246094 z M 404.24023 45.050781 L 397.25391 49.037109 L 397.19336 57.115234 L 404.11719 61.208984 L 411.10547 57.222656 L 411.16602 49.144531 L 404.24023 45.050781 z M 264.95117 51.236328 L 257.96484 55.222656 L 257.9043 63.300781 L 264.82812 67.394531 L 271.81641 63.408203 L 271.87695 55.330078 L 264.95117 51.236328 z M 385.55273 52.878906 L 378.56641 56.865234 L 378.50391 64.945312 L 385.42969 69.037109 L 392.41797 65.052734 L 392.47852 56.972656 L 385.55273 52.878906 z M 366.48633 53.130859 L 359.5 57.117188 L 359.4375 65.197266 L 366.36328 69.291016 L 373.34961 65.304688 L 373.41211 57.224609 L 366.48633 53.130859 z "
       transform="matrix(3.9290624,0,0,3.9290624,-1380,0)"
       id="path2951" />
  </g>
</svg>
