<?xml version="1.0" encoding="UTF-8" standalone="no"?>
<!-- Created with Inkscape (http://www.inkscape.org/) -->

<svg
   xmlns:dc="http://purl.org/dc/elements/1.1/"
   xmlns:cc="http://creativecommons.org/ns#"
   xmlns:rdf="http://www.w3.org/1999/02/22-rdf-syntax-ns#"
   xmlns:svg="http://www.w3.org/2000/svg"
   xmlns="http://www.w3.org/2000/svg"
   xmlns:sodipodi="http://sodipodi.sourceforge.net/DTD/sodipodi-0.dtd"
   xmlns:inkscape="http://www.inkscape.org/namespaces/inkscape"
   version="1.1"
   id="svg4711"
   xml:space="preserve"
   width="377.95276"
   height="188.97638"
   viewBox="0 0 377.95276 188.97638"
   sodipodi:docname="logopatrocinio.svg"
   inkscape:version="0.92.4 (5da689c313, 2019-01-14)"><metadata
     id="metadata4717"><rdf:RDF><cc:Work
         rdf:about=""><dc:format>image/svg+xml</dc:format><dc:type
           rdf:resource="http://purl.org/dc/dcmitype/StillImage" /><dc:title></dc:title></cc:Work></rdf:RDF></metadata><defs
     id="defs4715" /><sodipodi:namedview
     pagecolor="#ffffff"
     bordercolor="#666666"
     borderopacity="1"
     objecttolerance="10"
     gridtolerance="10"
     guidetolerance="10"
     inkscape:pageopacity="0"
     inkscape:pageshadow="2"
     inkscape:window-width="2560"
     inkscape:window-height="1017"
     id="namedview4713"
     showgrid="false"
     inkscape:zoom="2.0902083"
     inkscape:cx="137.40829"
     inkscape:cy="91.077942"
     inkscape:window-x="1912"
     inkscape:window-y="-8"
     inkscape:window-maximized="1"
     inkscape:current-layer="g4719" /><g
     id="g4719"
     inkscape:groupmode="layer"
     inkscape:label="logopatrocinio"
     transform="matrix(1.3333333,0,0,1.3333333,0,4.7244095e-6)"><path
       style="fill:none;fill-opacity:1;fill-rule:evenodd;stroke:#000000;stroke-width:1.33333325"
       d="M 303.375 0.6875 C 276.26567 1.0355 243.2391 13.218224 226.50977 12.712891 C 211.0871 12.254224 180.63581 8.9417398 168.86914 18.816406 C 163.83314 23.029739 194.48879 21.665933 228.57812 39.947266 C 264.53546 59.217932 266.75391 76.912109 266.75391 76.912109 C 266.75391 76.912109 248.1301 91.682818 242.38477 104.52148 C 251.34343 104.52148 253.22461 104.61914 253.22461 104.61914 C 254.51128 102.72314 256.46461 100.68804 258.22461 98.609375 C 259.97928 96.526708 261.98423 94.416859 264.24023 92.380859 C 266.50023 90.350193 269.01554 88.390333 271.79688 86.625 C 273.19287 85.745 274.64521 84.912625 276.17188 84.140625 C 277.69721 83.364625 279.29232 82.656151 280.95898 82.021484 C 282.62565 81.385484 284.35935 80.827375 286.16602 80.359375 C 287.96868 79.895375 289.8494 79.510901 291.80273 79.240234 C 293.76007 78.964234 295.67717 78.884656 297.5625 78.972656 C 299.46383 79.067323 301.32329 79.328234 303.14062 79.740234 C 304.96462 80.150901 306.74933 80.713292 308.5 81.390625 C 310.24 82.073292 311.94804 82.880969 313.60938 83.792969 C 315.26537 84.698302 316.88513 85.712875 318.45312 86.796875 C 320.02112 87.890208 321.54186 89.051917 323.00586 90.28125 C 325.93786 92.723917 328.66196 95.384698 331.14062 98.082031 C 333.62062 100.77536 333.46454 101.94282 335.42188 104.52148 L 371.81641 104.52148 C 371.81641 104.52148 368.12526 25.224026 327.69727 5.1933594 C 320.79727 1.7653595 312.41633 0.57816667 303.375 0.6875 z M 294.94336 22.822266 C 298.39669 22.822266 301.85964 24.177583 301.43164 27.15625 C 301.04097 29.91225 298.16759 30.693625 295.18359 30.765625 C 291.71426 30.860292 288.99924 29.583542 288.75391 26.796875 C 288.52591 24.108875 290.62603 22.822266 294.94336 22.822266 z M 209.50586 23.0625 C 235.07919 22.969167 247.41528 27.1885 253.86328 30.8125 C 262.38461 35.609833 259.06357 40.988599 250.49023 39.447266 C 237.1569 37.045932 238.33919 32.119833 209.50586 23.0625 z M 126.38477 112.17188 C 125.33277 112.17187 124.3125 112.40071 123.3125 112.85938 C 122.31783 113.27004 121.47774 113.984 120.81641 115 L 85.425781 166.39062 L 96.990234 166.39062 L 120.81641 130.03516 L 120.81641 160.25 C 120.81641 161.17133 120.98307 161.99971 121.31641 162.73438 C 121.64441 163.46904 122.09854 164.11402 122.67188 164.66602 C 123.24521 165.21268 123.91188 165.65532 124.67188 165.97266 C 125.43187 166.24999 126.24042 166.39062 127.09375 166.39062 C 128.09375 166.39062 129.06815 166.16179 130.02148 165.70312 C 130.96948 165.24046 131.85544 164.38986 132.66211 163.14453 L 154.34961 130.03516 L 154.34961 166.39062 L 164.05273 166.39062 L 164.05273 116.85938 C 164.05273 115.43671 163.67211 114.30704 162.91211 113.48438 C 162.15078 112.60438 161.15078 112.17188 159.91211 112.17188 C 158.81744 112.17187 157.77682 112.40071 156.77148 112.85938 C 155.82348 113.27004 155.01628 113.984 154.34961 115 L 130.52148 149.625 L 130.52148 116.85938 C 130.52148 115.43671 130.14086 114.30704 129.38086 113.48438 C 128.61553 112.60438 127.61943 112.17188 126.38477 112.17188 z M 326.73438 112.43164 L 326.73438 161.95898 C 326.73437 163.38565 327.115 164.50989 327.875 165.33789 C 328.63633 166.16589 329.63581 166.57812 330.86914 166.57812 C 331.96381 166.57812 332.9895 166.39658 333.9375 166.03125 C 334.9375 165.61525 335.77031 164.8796 336.43164 163.82227 L 349.42188 144.50586 L 364.75977 166.23438 L 377.88477 166.23438 L 355.19727 136.16211 L 371.82227 112.43164 L 360.26562 112.43164 L 336.43164 148.78711 L 336.43164 112.43164 L 326.73438 112.43164 z M 237.84375 112.49023 C 234.00508 112.49023 230.48887 113.13078 227.29688 114.41211 C 224.15554 115.69744 221.4484 117.50456 219.17773 119.83789 C 216.9484 122.17656 215.19697 124.94772 213.93164 128.15039 C 212.71297 131.35972 212.09961 134.89038 212.09961 138.73438 C 212.09961 142.58371 212.73467 146.17748 214 149.52148 C 215.26533 152.81748 217.03607 155.7084 219.30273 158.17773 C 221.57873 160.65107 224.28578 162.59882 227.42578 164.02148 C 230.61378 165.39615 234.08775 166.08203 237.84375 166.08203 L 239.34961 166.08203 C 243.10961 166.08203 246.56313 165.39615 249.70312 164.02148 C 252.84979 162.59882 255.55746 160.65107 257.82812 158.17773 C 260.14546 155.7084 261.93193 152.81748 263.19727 149.52148 C 264.46927 146.17748 265.09961 142.58371 265.09961 138.73438 C 265.09961 134.93171 264.48962 131.43261 263.26562 128.22461 C 262.04163 125.01661 260.29801 122.24492 258.02734 119.90625 C 255.79801 117.57292 253.08706 115.76518 249.90039 114.47852 C 246.75372 113.15052 243.24028 112.49023 239.34961 112.49023 L 237.84375 112.49023 z M 170.24023 112.51562 L 170.24023 166.32227 L 186.93164 166.32227 C 190.73431 166.32227 194.02072 165.90612 196.77539 165.07812 C 199.58339 164.25013 201.8906 163.12527 203.69727 161.69727 C 205.55193 160.22393 206.90696 158.52708 207.76562 156.59375 C 208.67229 154.66175 209.11914 152.59277 209.11914 150.38477 C 209.11914 149.28077 208.97869 148.13083 208.69336 146.9375 C 208.45336 145.74017 208.02678 144.5889 207.41211 143.49023 C 206.79211 142.3809 205.95878 141.37446 204.91211 140.45312 C 203.91211 139.48913 202.67246 138.68235 201.20312 138.04102 C 202.53112 137.44235 203.6514 136.70279 204.55273 135.82812 C 205.4594 134.95879 206.17203 134.016 206.69336 133 C 207.21869 131.94267 207.59932 130.86377 207.83398 129.75977 C 208.07398 128.6091 208.19336 127.5046 208.19336 126.44727 C 208.19336 121.75393 206.55282 118.26084 203.27148 115.96484 C 199.99015 113.66218 195.22933 112.51562 189 112.51562 L 170.24023 112.51562 z M 17.494141 112.58398 C 14.926141 112.58398 12.572974 112.97257 10.431641 113.75391 C 8.2916407 114.48857 6.4646927 115.52604 4.9433594 116.85938 C 3.4166927 118.19271 2.2291406 119.76073 1.3691406 121.55273 C 0.56247398 123.34473 0.15625 125.29744 0.15625 127.41211 C 0.15625 129.57878 0.56247398 131.55761 1.3691406 133.34961 C 2.1824739 135.09361 3.2979427 136.63542 4.7246094 137.96875 C 6.151276 139.25408 7.8396355 140.26586 9.7929688 141.00586 C 11.740969 141.69386 13.855292 142.04102 16.140625 142.04102 L 20.5625 142.04102 C 22.035833 142.04102 23.415932 142.22389 24.697266 142.58789 C 25.983932 142.95856 27.078516 143.48973 27.978516 144.17773 C 28.885182 144.82307 29.598333 145.60468 30.125 146.52734 C 30.645 147.44334 30.90625 148.45264 30.90625 149.55664 C 30.90625 151.76464 29.931849 153.5575 27.978516 154.9375 C 26.030516 156.3175 23.5625 157.00977 20.5625 157.00977 L 1.0820312 157.00977 L 1.0820312 166.39062 L 20.5625 166.39062 C 23.415833 166.39062 26.009891 165.97253 28.337891 165.14453 C 30.671224 164.31653 32.667318 163.1666 34.333984 161.69727 C 36.041984 160.22393 37.353906 158.47846 38.253906 156.45312 C 39.15524 154.43179 39.615234 152.20296 39.615234 149.76562 C 39.615234 147.36963 39.182792 145.16729 38.328125 143.14062 C 37.469458 141.12063 36.281099 139.36839 34.759766 137.90039 C 33.239766 136.42572 31.431224 135.30229 29.337891 134.51562 C 27.244557 133.69296 24.964901 133.28125 22.490234 133.28125 L 16.994141 133.28125 C 14.999474 133.28125 13.380625 132.72367 12.140625 131.625 C 10.959292 130.51567 10.363281 129.14037 10.363281 127.48438 C 10.363281 125.96971 10.959292 124.67647 12.140625 123.61914 C 13.333958 122.51514 14.947474 121.96484 16.994141 121.96484 L 35.972656 121.96484 L 35.972656 112.58398 L 17.494141 112.58398 z M 44.46875 112.58398 L 44.46875 166.39062 L 69.224609 166.39062 L 69.224609 157.00977 L 54.099609 157.00977 L 54.099609 112.58398 L 44.46875 112.58398 z M 73.115234 112.58398 L 73.115234 166.39062 L 82.822266 166.39062 L 82.822266 112.58398 L 73.115234 112.58398 z M 295.21289 112.58398 C 291.36889 112.58398 287.85402 113.22896 284.66602 114.51562 C 281.52068 115.80229 278.81168 117.62084 276.54102 119.96484 C 274.31168 122.31284 272.56807 125.09383 271.30273 128.3125 C 270.07873 131.53117 269.46875 135.0735 269.46875 138.9375 C 269.46875 142.7975 270.09795 146.40696 271.36328 149.76562 C 272.63528 153.07896 274.40121 155.97365 276.67188 158.45898 C 278.94254 160.94298 281.65021 162.89507 284.79688 164.31641 C 287.98354 165.70174 291.45822 166.39062 295.21289 166.39062 L 296.71875 166.39062 C 300.47342 166.39062 303.92755 165.70174 307.07422 164.31641 C 310.21422 162.89507 312.92127 160.94298 315.19727 158.45898 C 317.5106 155.97365 319.29769 153.07896 320.56836 149.76562 C 321.83369 146.40696 322.46484 142.7975 322.46484 138.9375 C 322.46484 135.12017 321.85539 131.59953 320.63672 128.38086 C 319.41272 125.16219 317.66129 122.38058 315.39062 120.03125 C 313.16129 117.68858 310.45415 115.86932 307.27148 114.58398 C 304.12615 113.25065 300.60942 112.58398 296.71875 112.58398 L 295.21289 112.58398 z M 179.94336 121.82812 L 188.43164 121.82812 C 192.28097 121.82813 194.9945 122.31139 196.5625 123.27539 C 198.1825 124.23939 198.99023 125.82716 198.99023 128.03516 C 198.99023 130.24449 198.39646 131.85395 197.20312 132.86328 C 196.06846 133.87395 194.42125 134.38086 192.28125 134.38086 L 185.57812 134.38086 L 185.57812 143.69336 L 192.28125 143.69336 C 194.42125 143.69336 196.20872 144.24561 197.63672 145.34961 C 199.06339 146.45361 199.77539 148.1301 199.77539 150.38477 C 199.77539 152.63943 198.7025 154.29814 196.5625 155.35547 C 194.46917 156.4128 191.75964 156.94336 188.43164 156.94336 L 179.94336 156.94336 L 179.94336 121.82812 z M 237.84375 121.83398 L 239.34961 121.83398 C 241.79761 121.83398 244.04761 122.26605 246.09961 123.13672 C 248.19828 124.01139 249.98332 125.24561 251.47266 126.84961 C 253.00466 128.40694 254.17643 130.26011 255.00977 132.41211 C 255.83777 134.56811 256.25391 136.92757 256.25391 139.49023 C 256.25391 141.9649 255.83777 144.25395 255.00977 146.36328 C 254.2231 148.46861 253.08752 150.30204 251.60352 151.85938 C 250.11952 153.36871 248.32718 154.56231 246.22852 155.43164 C 244.17652 156.30231 241.88561 156.74023 239.34961 156.74023 L 237.84375 156.74023 C 235.35442 156.74023 233.06208 156.32267 230.96875 155.5 C 228.91142 154.63067 227.14611 153.44178 225.66211 151.92578 C 224.17811 150.36845 223.0155 148.53564 222.1875 146.43164 C 221.3595 144.32231 220.94336 142.01157 220.94336 139.49023 C 220.94336 136.8809 221.3595 134.49975 222.1875 132.34375 C 223.06217 130.19308 224.24061 128.33858 225.72461 126.78125 C 227.25528 125.22392 229.04761 124.01139 231.09961 123.13672 C 233.15161 122.26605 235.40108 121.83398 237.84375 121.83398 z M 295.21289 121.96484 L 296.71875 121.96484 C 299.16675 121.96484 301.41542 122.40606 303.46875 123.27539 C 305.56742 124.15006 307.35389 125.39067 308.83789 127 C 310.36856 128.56267 311.547 130.42656 312.375 132.58789 C 313.20833 134.74922 313.61914 137.12003 313.61914 139.69336 C 313.61914 142.17736 313.20833 144.47908 312.375 146.59375 C 311.58833 148.70842 310.45275 150.54671 308.96875 152.10938 C 307.48342 153.63071 305.69428 154.8226 303.59961 155.69727 C 301.54761 156.57327 299.25075 157.00977 296.71875 157.00977 L 295.21289 157.00977 C 292.72356 157.00977 290.43265 156.59362 288.33398 155.76562 C 286.28198 154.89629 284.51668 153.69826 283.02734 152.18359 C 281.54201 150.61559 280.38464 148.77678 279.55664 146.66211 C 278.72331 144.54744 278.3125 142.22403 278.3125 139.69336 C 278.3125 137.07336 278.72331 134.68282 279.55664 132.52148 C 280.42597 130.36015 281.60975 128.49431 283.09375 126.93164 C 284.62042 125.36364 286.41142 124.15006 288.46875 123.27539 C 290.51542 122.40606 292.76489 121.96484 295.21289 121.96484 z "
       transform="matrix(0.75000002,0,0,0.75000002,0,-3.5433072e-6)"
       id="path4723" /></g></svg>