<?xml version="1.0" encoding="UTF-8" standalone="no"?>
<!-- Created with Inkscape (http://www.inkscape.org/) -->

<svg
   xmlns:dc="http://purl.org/dc/elements/1.1/"
   xmlns:cc="http://creativecommons.org/ns#"
   xmlns:rdf="http://www.w3.org/1999/02/22-rdf-syntax-ns#"
   xmlns:svg="http://www.w3.org/2000/svg"
   xmlns="http://www.w3.org/2000/svg"
   xmlns:sodipodi="http://sodipodi.sourceforge.net/DTD/sodipodi-0.dtd"
   xmlns:inkscape="http://www.inkscape.org/namespaces/inkscape"
   version="1.1"
   id="svg4711"
   xml:space="preserve"
   width="377.95276"
   height="188.97638"
   viewBox="0 0 377.95276 188.97638"
   sodipodi:docname="slimbook.svg"
   inkscape:version="0.92.4 (5da689c313, 2019-01-14)"><metadata
     id="metadata4717"><rdf:RDF><cc:Work
         rdf:about=""><dc:format>image/svg+xml</dc:format><dc:type
           rdf:resource="http://purl.org/dc/dcmitype/StillImage" /><dc:title></dc:title></cc:Work></rdf:RDF></metadata><defs
     id="defs4715" /><sodipodi:namedview
     pagecolor="#ffffff"
     bordercolor="#666666"
     borderopacity="1"
     objecttolerance="10"
     gridtolerance="10"
     guidetolerance="10"
     inkscape:pageopacity="0"
     inkscape:pageshadow="2"
     inkscape:window-width="2560"
     inkscape:window-height="1017"
     id="namedview4713"
     showgrid="false"
     inkscape:zoom="2.0902083"
     inkscape:cx="137.40829"
     inkscape:cy="91.077942"
     inkscape:window-x="1912"
     inkscape:window-y="-8"
     inkscape:window-maximized="1"
     inkscape:current-layer="g4719" /><g
     id="g4719"
     inkscape:groupmode="layer"
     inkscape:label="logopatrocinio"
     transform="matrix(1.3333333,0,0,1.3333333,0,4.7244095e-6)"><path
       style="fill:none;fill-opacity:1;fill-rule:evenodd;stroke:#000000;stroke-width:1.33333325"
       d="m 126.38477,112.17188 c -1.052,-1e-5 -2.07227,0.22883 -3.07227,0.6875 -0.99467,0.41066 -1.83476,1.12462 -2.49609,2.14062 L 85.425781,166.39062 H 96.990234 L 120.81641,130.03516 V 160.25 c 0,0.92133 0.16666,1.74971 0.5,2.48438 0.328,0.73466 0.78213,1.37964 1.35547,1.93164 0.57333,0.54666 1.24,0.9893 2,1.30664 0.75999,0.27733 1.56854,0.41796 2.42187,0.41796 1,0 1.9744,-0.22883 2.92773,-0.6875 0.948,-0.46266 1.83396,-1.31326 2.64063,-2.55859 l 21.6875,-33.10937 v 36.35546 h 9.70312 v -49.53124 c 0,-1.42267 -0.38062,-2.55234 -1.14062,-3.375 -0.76133,-0.88 -1.76133,-1.3125 -3,-1.3125 -1.09467,-1e-5 -2.13529,0.22883 -3.14063,0.6875 -0.948,0.41066 -1.7552,1.12462 -2.42187,2.14062 l -23.82813,34.625 v -32.76562 c 0,-1.42267 -0.38062,-2.55234 -1.14062,-3.375 -0.76533,-0.88 -1.76143,-1.3125 -2.99609,-1.3125 z m 200.34961,0.25976 v 49.52734 c -10e-6,1.42667 0.38062,2.55091 1.14062,3.37891 0.76133,0.828 1.76081,1.24023 2.99414,1.24023 1.09467,0 2.12036,-0.18154 3.06836,-0.54687 1,-0.416 1.83281,-1.15165 2.49414,-2.20898 l 12.99024,-19.31641 15.33789,21.72852 h 13.125 l -22.6875,-30.07227 16.625,-23.73047 h -11.55665 l -23.83398,36.35547 v -36.35547 z m -88.89063,0.0586 c -3.83867,0 -7.35488,0.64055 -10.54687,1.92188 -3.14134,1.28533 -5.84848,3.09245 -8.11915,5.42578 -2.22933,2.33867 -3.98076,5.10983 -5.24609,8.3125 -1.21867,3.20933 -1.83203,6.73999 -1.83203,10.58399 0,3.84933 0.63506,7.4431 1.90039,10.7871 1.26533,3.296 3.03607,6.18692 5.30273,8.65625 2.276,2.47334 4.98305,4.42109 8.12305,5.84375 3.188,1.37467 6.66197,2.06055 10.41797,2.06055 h 1.50586 c 3.76,0 7.21352,-0.68588 10.35351,-2.06055 3.14667,-1.42266 5.85434,-3.37041 8.125,-5.84375 2.31734,-2.46933 4.10381,-5.36025 5.36915,-8.65625 1.272,-3.344 1.90234,-6.93777 1.90234,-10.7871 0,-3.80267 -0.60999,-7.30177 -1.83399,-10.50977 -1.22399,-3.208 -2.96761,-5.97969 -5.23828,-8.31836 -2.22933,-2.33333 -4.94028,-4.14107 -8.12695,-5.42773 -3.14667,-1.328 -6.66011,-1.98829 -10.55078,-1.98829 z m -67.60352,0.0254 v 53.80665 h 16.69141 c 3.80267,0 7.08908,-0.41615 9.84375,-1.24415 2.808,-0.82799 5.11521,-1.95285 6.92188,-3.38085 1.85466,-1.47334 3.20969,-3.17019 4.06835,-5.10352 0.90667,-1.932 1.35352,-4.00098 1.35352,-6.20898 0,-1.104 -0.14045,-2.25394 -0.42578,-3.44727 -0.24,-1.19733 -0.66658,-2.3486 -1.28125,-3.44727 -0.62,-1.10933 -1.45333,-2.11577 -2.5,-3.03711 -1,-0.96399 -2.23965,-1.77077 -3.70899,-2.4121 1.328,-0.59867 2.44828,-1.33823 3.34961,-2.2129 0.90667,-0.86933 1.6193,-1.81212 2.14063,-2.82812 0.52533,-1.05733 0.90596,-2.13623 1.14062,-3.24023 0.24,-1.15067 0.35938,-2.25517 0.35938,-3.3125 0,-4.69334 -1.64054,-8.18643 -4.92188,-10.48243 -3.28133,-2.30266 -8.04215,-3.44922 -14.27148,-3.44922 z m -152.746089,0.0684 c -2.568,0 -4.921167,0.38859 -7.0625,1.16993 -2.1400003,0.73466 -3.9669483,1.77213 -5.4882816,3.10547 -1.5266667,1.33333 -2.7142188,2.90135 -3.5742188,4.69335 -0.80666662,1.792 -1.2128906,3.74471 -1.2128906,5.85938 0,2.16667 0.40622398,4.1455 1.2128906,5.9375 0.8133333,1.744 1.9288021,3.28581 3.3554688,4.61914 1.4266666,1.28533 3.1150261,2.29711 5.0683594,3.03711 1.9480002,0.688 4.0623232,1.03516 6.3476562,1.03516 H 20.5625 c 1.473333,0 2.853432,0.18287 4.134766,0.54687 1.286666,0.37067 2.38125,0.90184 3.28125,1.58984 0.906666,0.64534 1.619817,1.42695 2.146484,2.34961 0.52,0.916 0.78125,1.9253 0.78125,3.0293 0,2.208 -0.974401,4.00086 -2.927734,5.38086 -1.948,1.38 -4.416016,2.07227 -7.416016,2.07227 H 1.0820312 v 9.38085 H 20.5625 c 2.853333,0 5.447391,-0.41809 7.775391,-1.24609 2.333333,-0.828 4.329427,-1.97793 5.996093,-3.44726 1.708,-1.47334 3.019922,-3.21881 3.919922,-5.24415 0.901334,-2.02133 1.361328,-4.25016 1.361328,-6.6875 0,-2.39599 -0.432442,-4.59833 -1.287109,-6.625 -0.858667,-2.01999 -2.047026,-3.77223 -3.568359,-5.24023 -1.52,-1.47467 -3.328542,-2.5981 -5.421875,-3.38477 -2.093334,-0.82266 -4.37299,-1.23437 -6.847657,-1.23437 h -5.496093 c -1.994667,0 -3.613516,-0.55758 -4.853516,-1.65625 -1.181333,-1.10933 -1.777344,-2.48463 -1.777344,-4.14062 0,-1.51467 0.596011,-2.80791 1.777344,-3.86524 1.193333,-1.104 2.806849,-1.6543 4.853516,-1.6543 h 18.978515 v -9.38086 z m 26.974609,0 v 53.80664 h 24.755859 v -9.38085 h -15.125 v -44.42579 z m 28.646484,0 v 53.80664 h 9.707032 v -53.80664 z m 222.097656,0 c -3.844,0 -7.35887,0.64498 -10.54687,1.93164 -3.14534,1.28667 -5.85434,3.10522 -8.125,5.44922 -2.22934,2.348 -3.97295,5.12899 -5.23829,8.34766 -1.224,3.21867 -1.83398,6.761 -1.83398,10.625 0,3.86 0.6292,7.46946 1.89453,10.82812 1.272,3.31334 3.03793,6.20803 5.3086,8.69336 2.27066,2.484 4.97833,4.43609 8.125,5.85743 3.18666,1.38533 6.66134,2.07421 10.41601,2.07421 h 1.50586 c 3.75467,0 7.2088,-0.68888 10.35547,-2.07421 3.14,-1.42134 5.84705,-3.37343 8.12305,-5.85743 2.31333,-2.48533 4.10042,-5.38002 5.37109,-8.69336 1.26533,-3.35866 1.89648,-6.96812 1.89648,-10.82812 0,-3.81733 -0.60945,-7.33797 -1.82812,-10.55664 -1.224,-3.21867 -2.97543,-6.00028 -5.2461,-8.34961 -2.22933,-2.34267 -4.93647,-4.16193 -8.11914,-5.44727 -3.14533,-1.33333 -6.66206,-2 -10.55273,-2 z m -115.26953,9.24414 h 8.48828 c 3.84933,1e-5 6.56286,0.48327 8.13086,1.44727 1.62,0.964 2.42773,2.55177 2.42773,4.75977 0,2.20933 -0.59377,3.81879 -1.78711,4.82812 -1.13466,1.01067 -2.78187,1.51758 -4.92187,1.51758 h -6.70313 v 9.3125 h 6.70313 c 2.14,0 3.92747,0.55225 5.35547,1.65625 1.42667,1.104 2.13867,2.78049 2.13867,5.03516 0,2.25466 -1.07289,3.91337 -3.21289,4.9707 -2.09333,1.05733 -4.80286,1.58789 -8.13086,1.58789 h -8.48828 z m 57.90039,0.006 h 1.50586 c 2.448,0 4.698,0.43207 6.75,1.30274 2.09867,0.87467 3.88371,2.10889 5.37305,3.71289 1.532,1.55733 2.70377,3.4105 3.53711,5.5625 0.828,2.156 1.24414,4.51546 1.24414,7.07812 0,2.47467 -0.41614,4.76372 -1.24414,6.87305 -0.78667,2.10533 -1.92225,3.93876 -3.40625,5.4961 -1.484,1.50933 -3.27634,2.70293 -5.375,3.57226 -2.052,0.87067 -4.34291,1.30859 -6.87891,1.30859 h -1.50586 c -2.48933,0 -4.78167,-0.41756 -6.875,-1.24023 -2.05733,-0.86933 -3.82264,-2.05822 -5.30664,-3.57422 -1.484,-1.55733 -2.64661,-3.39014 -3.47461,-5.49414 -0.828,-2.10933 -1.24414,-4.42007 -1.24414,-6.94141 0,-2.60933 0.41614,-4.99048 1.24414,-7.14648 0.87467,-2.15067 2.05311,-4.00517 3.53711,-5.5625 1.53067,-1.55733 3.323,-2.76986 5.375,-3.64453 2.052,-0.87067 4.30147,-1.30274 6.74414,-1.30274 z m 57.36914,0.13086 h 1.50586 c 2.448,0 4.69667,0.44122 6.75,1.31055 2.09867,0.87467 3.88514,2.11528 5.36914,3.72461 1.53067,1.56267 2.70911,3.42656 3.53711,5.58789 0.83333,2.16133 1.24414,4.53214 1.24414,7.10547 0,2.484 -0.41081,4.78572 -1.24414,6.90039 -0.78667,2.11467 -1.92225,3.95296 -3.40625,5.51563 -1.48533,1.52133 -3.27447,2.71322 -5.36914,3.58789 -2.052,0.876 -4.34886,1.3125 -6.88086,1.3125 h -1.50586 c -2.48933,0 -4.78024,-0.41615 -6.87891,-1.24415 -2.052,-0.86933 -3.8173,-2.06736 -5.30664,-3.58203 -1.48533,-1.568 -2.6427,-3.40681 -3.4707,-5.52148 -0.83333,-2.11467 -1.24414,-4.43808 -1.24414,-6.96875 0,-2.62 0.41081,-5.01054 1.24414,-7.17188 0.86933,-2.16133 2.05311,-4.02717 3.53711,-5.58984 1.52667,-1.568 3.31767,-2.78158 5.375,-3.65625 2.04667,-0.86933 4.29614,-1.31055 6.74414,-1.31055 z"
       transform="matrix(0.75000002,0,0,0.75000002,0,-3.5433072e-6)"
       id="path4723"
       inkscape:connector-curvature="0"
       sodipodi:nodetypes="ccccccscccscccccscccccscccccscccccccccccscccscccsscccscccssccscccscccccccscscscccscccsscccscsccscccscccsscscsccsccccccccccccscccscccsscccscccsscccscsccscscsccsscccscccsscccscccssscccscccssccasaccs" /></g></svg>